<svg width="400" height="400" viewBox="0 0 400 400" fill="none" xmlns="http://www.w3.org/2000/svg">
<mask id="mask0_10_2822" style="mask-type:alpha" maskUnits="userSpaceOnUse" x="0" y="0" width="400" height="400">
<circle cx="200" cy="200" r="200" fill="#D9D9D9"/>
</mask>
<g mask="url(#mask0_10_2822)">
<circle cx="8" cy="5" r="5" fill="white"/>
<circle cx="24" cy="5" r="5" fill="white"/>
<circle cx="40" cy="5" r="5" fill="white"/>
<circle cx="56" cy="5" r="5" fill="white"/>
<circle cx="72" cy="5" r="5" fill="white"/>
<circle cx="88" cy="5" r="5" fill="white"/>
<circle cx="104" cy="5" r="5" fill="white"/>
<circle cx="120" cy="5" r="5" fill="white"/>
<circle cx="136" cy="5" r="5" fill="white"/>
<circle cx="152" cy="5" r="5" fill="white"/>
<circle cx="168" cy="5" r="5" fill="white"/>
<circle cx="184" cy="5" r="5" fill="white"/>
<circle cx="200" cy="5" r="5" fill="white"/>
<circle cx="216" cy="5" r="5" fill="white"/>
<circle cx="232" cy="5" r="5" fill="white"/>
<circle cx="248" cy="5" r="5" fill="white"/>
<circle cx="264" cy="5" r="5" fill="white"/>
<circle cx="280" cy="5" r="5" fill="white"/>
<circle cx="296" cy="5" r="5" fill="white"/>
<circle cx="312" cy="5" r="5" fill="white"/>
<circle cx="328" cy="5" r="5" fill="white"/>
<circle cx="344" cy="5" r="5" fill="white"/>
<circle cx="360" cy="5" r="5" fill="white"/>
<circle cx="376" cy="5" r="5" fill="white"/>
<circle cx="392" cy="5" r="5" fill="white"/>
<circle cx="8" cy="21" r="5" fill="white"/>
<circle cx="24" cy="21" r="5" fill="white"/>
<circle cx="40" cy="21" r="5" fill="white"/>
<circle cx="56" cy="21" r="5" fill="white"/>
<circle cx="72" cy="21" r="5" fill="white"/>
<circle cx="88" cy="21" r="5" fill="white"/>
<circle cx="104" cy="21" r="5" fill="white"/>
<circle cx="120" cy="21" r="5" fill="white"/>
<circle cx="136" cy="21" r="5" fill="white"/>
<circle cx="152" cy="21" r="5" fill="white"/>
<circle cx="168" cy="21" r="5" fill="white"/>
<circle cx="184" cy="21" r="5" fill="white"/>
<circle cx="200" cy="21" r="5" fill="white"/>
<circle cx="216" cy="21" r="5" fill="white"/>
<circle cx="232" cy="21" r="5" fill="white"/>
<circle cx="248" cy="21" r="5" fill="white"/>
<circle cx="264" cy="21" r="5" fill="white"/>
<circle cx="280" cy="21" r="5" fill="white"/>
<circle cx="296" cy="21" r="5" fill="white"/>
<circle cx="312" cy="21" r="5" fill="white"/>
<circle cx="328" cy="21" r="5" fill="white"/>
<circle cx="344" cy="21" r="5" fill="white"/>
<circle cx="360" cy="21" r="5" fill="white"/>
<circle cx="376" cy="21" r="5" fill="white"/>
<circle cx="392" cy="21" r="5" fill="white"/>
<circle cx="8" cy="37" r="5" fill="white"/>
<circle cx="24" cy="37" r="5" fill="white"/>
<circle cx="40" cy="37" r="5" fill="white"/>
<circle cx="56" cy="37" r="5" fill="white"/>
<circle cx="72" cy="37" r="5" fill="white"/>
<circle cx="88" cy="37" r="5" fill="white"/>
<circle cx="104" cy="37" r="5" fill="white"/>
<circle cx="120" cy="37" r="5" fill="white"/>
<circle cx="136" cy="37" r="5" fill="white"/>
<circle cx="152" cy="37" r="5" fill="white"/>
<circle cx="168" cy="37" r="5" fill="white"/>
<circle cx="184" cy="37" r="5" fill="white"/>
<circle cx="200" cy="37" r="5" fill="white"/>
<circle cx="216" cy="37" r="5" fill="white"/>
<circle cx="232" cy="37" r="5" fill="white"/>
<circle cx="248" cy="37" r="5" fill="white"/>
<circle cx="264" cy="37" r="5" fill="white"/>
<circle cx="280" cy="37" r="5" fill="white"/>
<circle cx="296" cy="37" r="5" fill="white"/>
<circle cx="312" cy="37" r="5" fill="white"/>
<circle cx="328" cy="37" r="5" fill="white"/>
<circle cx="344" cy="37" r="5" fill="white"/>
<circle cx="360" cy="37" r="5" fill="white"/>
<circle cx="376" cy="37" r="5" fill="white"/>
<circle cx="392" cy="37" r="5" fill="white"/>
<circle cx="8" cy="53" r="5" fill="white"/>
<circle cx="24" cy="53" r="5" fill="white"/>
<circle cx="40" cy="53" r="5" fill="white"/>
<circle cx="56" cy="53" r="5" fill="white"/>
<circle cx="72" cy="53" r="5" fill="white"/>
<circle cx="88" cy="53" r="5" fill="white"/>
<circle cx="104" cy="53" r="5" fill="white"/>
<circle cx="120" cy="53" r="5" fill="white"/>
<circle cx="136" cy="53" r="5" fill="white"/>
<circle cx="152" cy="53" r="5" fill="white"/>
<circle cx="168" cy="53" r="5" fill="white"/>
<circle cx="184" cy="53" r="5" fill="white"/>
<circle cx="200" cy="53" r="5" fill="white"/>
<circle cx="216" cy="53" r="5" fill="white"/>
<circle cx="232" cy="53" r="5" fill="white"/>
<circle cx="248" cy="53" r="5" fill="white"/>
<circle cx="264" cy="53" r="5" fill="white"/>
<circle cx="280" cy="53" r="5" fill="white"/>
<circle cx="296" cy="53" r="5" fill="white"/>
<circle cx="312" cy="53" r="5" fill="white"/>
<circle cx="328" cy="53" r="5" fill="white"/>
<circle cx="344" cy="53" r="5" fill="white"/>
<circle cx="360" cy="53" r="5" fill="white"/>
<circle cx="376" cy="53" r="5" fill="white"/>
<circle cx="392" cy="53" r="5" fill="white"/>
<circle cx="8" cy="69" r="5" fill="white"/>
<circle cx="24" cy="69" r="5" fill="white"/>
<circle cx="40" cy="69" r="5" fill="white"/>
<circle cx="56" cy="69" r="5" fill="white"/>
<circle cx="72" cy="69" r="5" fill="white"/>
<circle cx="88" cy="69" r="5" fill="white"/>
<circle cx="104" cy="69" r="5" fill="white"/>
<circle cx="120" cy="69" r="5" fill="white"/>
<circle cx="136" cy="69" r="5" fill="white"/>
<circle cx="152" cy="69" r="5" fill="white"/>
<circle cx="168" cy="69" r="5" fill="white"/>
<circle cx="184" cy="69" r="5" fill="white"/>
<circle cx="200" cy="69" r="5" fill="white"/>
<circle cx="216" cy="69" r="5" fill="white"/>
<circle cx="232" cy="69" r="5" fill="white"/>
<circle cx="248" cy="69" r="5" fill="white"/>
<circle cx="264" cy="69" r="5" fill="white"/>
<circle cx="280" cy="69" r="5" fill="white"/>
<circle cx="296" cy="69" r="5" fill="white"/>
<circle cx="312" cy="69" r="5" fill="white"/>
<circle cx="328" cy="69" r="5" fill="white"/>
<circle cx="344" cy="69" r="5" fill="white"/>
<circle cx="360" cy="69" r="5" fill="white"/>
<circle cx="376" cy="69" r="5" fill="white"/>
<circle cx="392" cy="69" r="5" fill="white"/>
<circle cx="8" cy="85" r="5" fill="white"/>
<circle cx="24" cy="85" r="5" fill="white"/>
<circle cx="40" cy="85" r="5" fill="white"/>
<circle cx="56" cy="85" r="5" fill="white"/>
<circle cx="72" cy="85" r="5" fill="white"/>
<circle cx="88" cy="85" r="5" fill="white"/>
<circle cx="104" cy="85" r="5" fill="white"/>
<circle cx="120" cy="85" r="5" fill="white"/>
<circle cx="136" cy="85" r="5" fill="white"/>
<circle cx="152" cy="85" r="5" fill="white"/>
<circle cx="168" cy="85" r="5" fill="white"/>
<circle cx="184" cy="85" r="5" fill="white"/>
<circle cx="200" cy="85" r="5" fill="white"/>
<circle cx="216" cy="85" r="5" fill="white"/>
<circle cx="232" cy="85" r="5" fill="white"/>
<circle cx="248" cy="85" r="5" fill="white"/>
<circle cx="264" cy="85" r="5" fill="white"/>
<circle cx="280" cy="85" r="5" fill="white"/>
<circle cx="296" cy="85" r="5" fill="white"/>
<circle cx="312" cy="85" r="5" fill="white"/>
<circle cx="328" cy="85" r="5" fill="white"/>
<circle cx="344" cy="85" r="5" fill="white"/>
<circle cx="360" cy="85" r="5" fill="white"/>
<circle cx="376" cy="85" r="5" fill="white"/>
<circle cx="392" cy="85" r="5" fill="white"/>
<circle cx="8" cy="101" r="5" fill="white"/>
<circle cx="24" cy="101" r="5" fill="white"/>
<circle cx="40" cy="101" r="5" fill="white"/>
<circle cx="56" cy="101" r="5" fill="white"/>
<circle cx="72" cy="101" r="5" fill="white"/>
<circle cx="88" cy="101" r="5" fill="white"/>
<circle cx="104" cy="101" r="5" fill="white"/>
<circle cx="120" cy="101" r="5" fill="white"/>
<circle cx="136" cy="101" r="5" fill="white"/>
<circle cx="152" cy="101" r="5" fill="white"/>
<circle cx="168" cy="101" r="5" fill="white"/>
<circle cx="184" cy="101" r="5" fill="white"/>
<circle cx="200" cy="101" r="5" fill="white"/>
<circle cx="216" cy="101" r="5" fill="white"/>
<circle cx="232" cy="101" r="5" fill="white"/>
<circle cx="248" cy="101" r="5" fill="white"/>
<circle cx="264" cy="101" r="5" fill="white"/>
<circle cx="280" cy="101" r="5" fill="white"/>
<circle cx="296" cy="101" r="5" fill="white"/>
<circle cx="312" cy="101" r="5" fill="white"/>
<circle cx="328" cy="101" r="5" fill="white"/>
<circle cx="344" cy="101" r="5" fill="white"/>
<circle cx="360" cy="101" r="5" fill="white"/>
<circle cx="376" cy="101" r="5" fill="white"/>
<circle cx="392" cy="101" r="5" fill="white"/>
<circle cx="8" cy="117" r="5" fill="white"/>
<circle cx="24" cy="117" r="5" fill="white"/>
<circle cx="40" cy="117" r="5" fill="white"/>
<circle cx="56" cy="117" r="5" fill="white"/>
<circle cx="72" cy="117" r="5" fill="white"/>
<circle cx="88" cy="117" r="5" fill="white"/>
<circle cx="104" cy="117" r="5" fill="white"/>
<circle cx="120" cy="117" r="5" fill="white"/>
<circle cx="136" cy="117" r="5" fill="white"/>
<circle cx="152" cy="117" r="5" fill="white"/>
<circle cx="168" cy="117" r="5" fill="white"/>
<circle cx="184" cy="117" r="5" fill="white"/>
<circle cx="200" cy="117" r="5" fill="white"/>
<circle cx="216" cy="117" r="5" fill="white"/>
<circle cx="232" cy="117" r="5" fill="white"/>
<circle cx="248" cy="117" r="5" fill="white"/>
<circle cx="264" cy="117" r="5" fill="white"/>
<circle cx="280" cy="117" r="5" fill="white"/>
<circle cx="296" cy="117" r="5" fill="white"/>
<circle cx="312" cy="117" r="5" fill="white"/>
<circle cx="328" cy="117" r="5" fill="white"/>
<circle cx="344" cy="117" r="5" fill="white"/>
<circle cx="360" cy="117" r="5" fill="white"/>
<circle cx="376" cy="117" r="5" fill="white"/>
<circle cx="392" cy="117" r="5" fill="white"/>
<circle cx="8" cy="133" r="5" fill="white"/>
<circle cx="24" cy="133" r="5" fill="white"/>
<circle cx="40" cy="133" r="5" fill="white"/>
<circle cx="56" cy="133" r="5" fill="white"/>
<circle cx="72" cy="133" r="5" fill="white"/>
<circle cx="88" cy="133" r="5" fill="white"/>
<circle cx="104" cy="133" r="5" fill="white"/>
<circle cx="120" cy="133" r="5" fill="white"/>
<circle cx="136" cy="133" r="5" fill="white"/>
<circle cx="152" cy="133" r="5" fill="white"/>
<circle cx="168" cy="133" r="5" fill="white"/>
<circle cx="184" cy="133" r="5" fill="white"/>
<circle cx="200" cy="133" r="5" fill="white"/>
<circle cx="216" cy="133" r="5" fill="white"/>
<circle cx="232" cy="133" r="5" fill="white"/>
<circle cx="248" cy="133" r="5" fill="white"/>
<circle cx="264" cy="133" r="5" fill="white"/>
<circle cx="280" cy="133" r="5" fill="white"/>
<circle cx="296" cy="133" r="5" fill="white"/>
<circle cx="312" cy="133" r="5" fill="white"/>
<circle cx="328" cy="133" r="5" fill="white"/>
<circle cx="344" cy="133" r="5" fill="white"/>
<circle cx="360" cy="133" r="5" fill="white"/>
<circle cx="376" cy="133" r="5" fill="white"/>
<circle cx="392" cy="133" r="5" fill="white"/>
<circle cx="8" cy="149" r="5" fill="white"/>
<circle cx="24" cy="149" r="5" fill="white"/>
<circle cx="40" cy="149" r="5" fill="white"/>
<circle cx="56" cy="149" r="5" fill="white"/>
<circle cx="72" cy="149" r="5" fill="white"/>
<circle cx="88" cy="149" r="5" fill="white"/>
<circle cx="104" cy="149" r="5" fill="white"/>
<circle cx="120" cy="149" r="5" fill="white"/>
<circle cx="136" cy="149" r="5" fill="white"/>
<circle cx="152" cy="149" r="5" fill="white"/>
<circle cx="168" cy="149" r="5" fill="white"/>
<circle cx="184" cy="149" r="5" fill="white"/>
<circle cx="200" cy="149" r="5" fill="white"/>
<circle cx="216" cy="149" r="5" fill="white"/>
<circle cx="232" cy="149" r="5" fill="white"/>
<circle cx="248" cy="149" r="5" fill="white"/>
<circle cx="264" cy="149" r="5" fill="white"/>
<circle cx="280" cy="149" r="5" fill="white"/>
<circle cx="296" cy="149" r="5" fill="white"/>
<circle cx="312" cy="149" r="5" fill="white"/>
<circle cx="328" cy="149" r="5" fill="white"/>
<circle cx="344" cy="149" r="5" fill="white"/>
<circle cx="360" cy="149" r="5" fill="white"/>
<circle cx="376" cy="149" r="5" fill="white"/>
<circle cx="392" cy="149" r="5" fill="white"/>
<circle cx="8" cy="165" r="5" fill="white"/>
<circle cx="24" cy="165" r="5" fill="white"/>
<circle cx="40" cy="165" r="5" fill="white"/>
<circle cx="56" cy="165" r="5" fill="white"/>
<circle cx="72" cy="165" r="5" fill="white"/>
<circle cx="88" cy="165" r="5" fill="white"/>
<circle cx="104" cy="165" r="5" fill="white"/>
<circle cx="120" cy="165" r="5" fill="white"/>
<circle cx="136" cy="165" r="5" fill="white"/>
<circle cx="152" cy="165" r="5" fill="white"/>
<circle cx="168" cy="165" r="5" fill="white"/>
<circle cx="184" cy="165" r="5" fill="white"/>
<circle cx="200" cy="165" r="5" fill="white"/>
<circle cx="216" cy="165" r="5" fill="white"/>
<circle cx="232" cy="165" r="5" fill="white"/>
<circle cx="248" cy="165" r="5" fill="white"/>
<circle cx="264" cy="165" r="5" fill="white"/>
<circle cx="280" cy="165" r="5" fill="white"/>
<circle cx="296" cy="165" r="5" fill="white"/>
<circle cx="312" cy="165" r="5" fill="white"/>
<circle cx="328" cy="165" r="5" fill="white"/>
<circle cx="344" cy="165" r="5" fill="white"/>
<circle cx="360" cy="165" r="5" fill="white"/>
<circle cx="376" cy="165" r="5" fill="white"/>
<circle cx="392" cy="165" r="5" fill="white"/>
<circle cx="8" cy="181" r="5" fill="white"/>
<circle cx="24" cy="181" r="5" fill="white"/>
<circle cx="40" cy="181" r="5" fill="white"/>
<circle cx="56" cy="181" r="5" fill="white"/>
<circle cx="72" cy="181" r="5" fill="white"/>
<circle cx="88" cy="181" r="5" fill="white"/>
<circle cx="104" cy="181" r="5" fill="white"/>
<circle cx="120" cy="181" r="5" fill="white"/>
<circle cx="136" cy="181" r="5" fill="white"/>
<circle cx="152" cy="181" r="5" fill="white"/>
<circle cx="168" cy="181" r="5" fill="white"/>
<circle cx="184" cy="181" r="5" fill="white"/>
<circle cx="200" cy="181" r="5" fill="white"/>
<circle cx="216" cy="181" r="5" fill="white"/>
<circle cx="232" cy="181" r="5" fill="white"/>
<circle cx="248" cy="181" r="5" fill="white"/>
<circle cx="264" cy="181" r="5" fill="white"/>
<circle cx="280" cy="181" r="5" fill="white"/>
<circle cx="296" cy="181" r="5" fill="white"/>
<circle cx="312" cy="181" r="5" fill="white"/>
<circle cx="328" cy="181" r="5" fill="white"/>
<circle cx="344" cy="181" r="5" fill="white"/>
<circle cx="360" cy="181" r="5" fill="white"/>
<circle cx="376" cy="181" r="5" fill="white"/>
<circle cx="392" cy="181" r="5" fill="white"/>
<circle cx="8" cy="197" r="5" fill="white"/>
<circle cx="24" cy="197" r="5" fill="white"/>
<circle cx="40" cy="197" r="5" fill="white"/>
<circle cx="56" cy="197" r="5" fill="white"/>
<circle cx="72" cy="197" r="5" fill="white"/>
<circle cx="88" cy="197" r="5" fill="white"/>
<circle cx="104" cy="197" r="5" fill="white"/>
<circle cx="120" cy="197" r="5" fill="white"/>
<circle cx="136" cy="197" r="5" fill="white"/>
<circle cx="152" cy="197" r="5" fill="white"/>
<circle cx="168" cy="197" r="5" fill="white"/>
<circle cx="184" cy="197" r="5" fill="white"/>
<circle cx="200" cy="197" r="5" fill="white"/>
<circle cx="216" cy="197" r="5" fill="white"/>
<circle cx="232" cy="197" r="5" fill="white"/>
<circle cx="248" cy="197" r="5" fill="white"/>
<circle cx="264" cy="197" r="5" fill="white"/>
<circle cx="280" cy="197" r="5" fill="white"/>
<circle cx="296" cy="197" r="5" fill="white"/>
<circle cx="312" cy="197" r="5" fill="white"/>
<circle cx="328" cy="197" r="5" fill="white"/>
<circle cx="344" cy="197" r="5" fill="white"/>
<circle cx="360" cy="197" r="5" fill="white"/>
<circle cx="376" cy="197" r="5" fill="white"/>
<circle cx="392" cy="197" r="5" fill="white"/>
<circle cx="8" cy="213" r="5" fill="white"/>
<circle cx="24" cy="213" r="5" fill="white"/>
<circle cx="40" cy="213" r="5" fill="white"/>
<circle cx="56" cy="213" r="5" fill="white"/>
<circle cx="72" cy="213" r="5" fill="white"/>
<circle cx="88" cy="213" r="5" fill="white"/>
<circle cx="104" cy="213" r="5" fill="white"/>
<circle cx="120" cy="213" r="5" fill="white"/>
<circle cx="136" cy="213" r="5" fill="white"/>
<circle cx="152" cy="213" r="5" fill="white"/>
<circle cx="168" cy="213" r="5" fill="white"/>
<circle cx="184" cy="213" r="5" fill="white"/>
<circle cx="200" cy="213" r="5" fill="white"/>
<circle cx="216" cy="213" r="5" fill="white"/>
<circle cx="232" cy="213" r="5" fill="white"/>
<circle cx="248" cy="213" r="5" fill="white"/>
<circle cx="264" cy="213" r="5" fill="white"/>
<circle cx="280" cy="213" r="5" fill="white"/>
<circle cx="296" cy="213" r="5" fill="white"/>
<circle cx="312" cy="213" r="5" fill="white"/>
<circle cx="328" cy="213" r="5" fill="white"/>
<circle cx="344" cy="213" r="5" fill="white"/>
<circle cx="360" cy="213" r="5" fill="white"/>
<circle cx="376" cy="213" r="5" fill="white"/>
<circle cx="392" cy="213" r="5" fill="white"/>
<circle cx="8" cy="229" r="5" fill="white"/>
<circle cx="24" cy="229" r="5" fill="white"/>
<circle cx="40" cy="229" r="5" fill="white"/>
<circle cx="56" cy="229" r="5" fill="white"/>
<circle cx="72" cy="229" r="5" fill="white"/>
<circle cx="88" cy="229" r="5" fill="white"/>
<circle cx="104" cy="229" r="5" fill="white"/>
<circle cx="120" cy="229" r="5" fill="white"/>
<circle cx="136" cy="229" r="5" fill="white"/>
<circle cx="152" cy="229" r="5" fill="white"/>
<circle cx="168" cy="229" r="5" fill="white"/>
<circle cx="184" cy="229" r="5" fill="white"/>
<circle cx="200" cy="229" r="5" fill="white"/>
<circle cx="216" cy="229" r="5" fill="white"/>
<circle cx="232" cy="229" r="5" fill="white"/>
<circle cx="248" cy="229" r="5" fill="white"/>
<circle cx="264" cy="229" r="5" fill="white"/>
<circle cx="280" cy="229" r="5" fill="white"/>
<circle cx="296" cy="229" r="5" fill="white"/>
<circle cx="312" cy="229" r="5" fill="white"/>
<circle cx="328" cy="229" r="5" fill="white"/>
<circle cx="344" cy="229" r="5" fill="white"/>
<circle cx="360" cy="229" r="5" fill="white"/>
<circle cx="376" cy="229" r="5" fill="white"/>
<circle cx="392" cy="229" r="5" fill="white"/>
<circle cx="8" cy="245" r="5" fill="white"/>
<circle cx="24" cy="245" r="5" fill="white"/>
<circle cx="40" cy="245" r="5" fill="white"/>
<circle cx="56" cy="245" r="5" fill="white"/>
<circle cx="72" cy="245" r="5" fill="white"/>
<circle cx="88" cy="245" r="5" fill="white"/>
<circle cx="104" cy="245" r="5" fill="white"/>
<circle cx="120" cy="245" r="5" fill="white"/>
<circle cx="136" cy="245" r="5" fill="white"/>
<circle cx="152" cy="245" r="5" fill="white"/>
<circle cx="168" cy="245" r="5" fill="white"/>
<circle cx="184" cy="245" r="5" fill="white"/>
<circle cx="200" cy="245" r="5" fill="white"/>
<circle cx="216" cy="245" r="5" fill="white"/>
<circle cx="232" cy="245" r="5" fill="white"/>
<circle cx="248" cy="245" r="5" fill="white"/>
<circle cx="264" cy="245" r="5" fill="white"/>
<circle cx="280" cy="245" r="5" fill="white"/>
<circle cx="296" cy="245" r="5" fill="white"/>
<circle cx="312" cy="245" r="5" fill="white"/>
<circle cx="328" cy="245" r="5" fill="white"/>
<circle cx="344" cy="245" r="5" fill="white"/>
<circle cx="360" cy="245" r="5" fill="white"/>
<circle cx="376" cy="245" r="5" fill="white"/>
<circle cx="392" cy="245" r="5" fill="white"/>
<circle cx="8" cy="261" r="5" fill="white"/>
<circle cx="24" cy="261" r="5" fill="white"/>
<circle cx="40" cy="261" r="5" fill="white"/>
<circle cx="56" cy="261" r="5" fill="white"/>
<circle cx="72" cy="261" r="5" fill="white"/>
<circle cx="88" cy="261" r="5" fill="white"/>
<circle cx="104" cy="261" r="5" fill="white"/>
<circle cx="120" cy="261" r="5" fill="white"/>
<circle cx="136" cy="261" r="5" fill="white"/>
<circle cx="152" cy="261" r="5" fill="white"/>
<circle cx="168" cy="261" r="5" fill="white"/>
<circle cx="184" cy="261" r="5" fill="white"/>
<circle cx="200" cy="261" r="5" fill="white"/>
<circle cx="216" cy="261" r="5" fill="white"/>
<circle cx="232" cy="261" r="5" fill="white"/>
<circle cx="248" cy="261" r="5" fill="white"/>
<circle cx="264" cy="261" r="5" fill="white"/>
<circle cx="280" cy="261" r="5" fill="white"/>
<circle cx="296" cy="261" r="5" fill="white"/>
<circle cx="312" cy="261" r="5" fill="white"/>
<circle cx="328" cy="261" r="5" fill="white"/>
<circle cx="344" cy="261" r="5" fill="white"/>
<circle cx="360" cy="261" r="5" fill="white"/>
<circle cx="376" cy="261" r="5" fill="white"/>
<circle cx="392" cy="261" r="5" fill="white"/>
<circle cx="8" cy="277" r="5" fill="white"/>
<circle cx="24" cy="277" r="5" fill="white"/>
<circle cx="40" cy="277" r="5" fill="white"/>
<circle cx="56" cy="277" r="5" fill="white"/>
<circle cx="72" cy="277" r="5" fill="white"/>
<circle cx="88" cy="277" r="5" fill="white"/>
<circle cx="104" cy="277" r="5" fill="white"/>
<circle cx="120" cy="277" r="5" fill="white"/>
<circle cx="136" cy="277" r="5" fill="white"/>
<circle cx="152" cy="277" r="5" fill="white"/>
<circle cx="168" cy="277" r="5" fill="white"/>
<circle cx="184" cy="277" r="5" fill="white"/>
<circle cx="200" cy="277" r="5" fill="white"/>
<circle cx="216" cy="277" r="5" fill="white"/>
<circle cx="232" cy="277" r="5" fill="white"/>
<circle cx="248" cy="277" r="5" fill="white"/>
<circle cx="264" cy="277" r="5" fill="white"/>
<circle cx="280" cy="277" r="5" fill="white"/>
<circle cx="296" cy="277" r="5" fill="white"/>
<circle cx="312" cy="277" r="5" fill="white"/>
<circle cx="328" cy="277" r="5" fill="white"/>
<circle cx="344" cy="277" r="5" fill="white"/>
<circle cx="360" cy="277" r="5" fill="white"/>
<circle cx="376" cy="277" r="5" fill="white"/>
<circle cx="392" cy="277" r="5" fill="white"/>
<circle cx="8" cy="293" r="5" fill="white"/>
<circle cx="24" cy="293" r="5" fill="white"/>
<circle cx="40" cy="293" r="5" fill="white"/>
<circle cx="56" cy="293" r="5" fill="white"/>
<circle cx="72" cy="293" r="5" fill="white"/>
<circle cx="88" cy="293" r="5" fill="white"/>
<circle cx="104" cy="293" r="5" fill="white"/>
<circle cx="120" cy="293" r="5" fill="white"/>
<circle cx="136" cy="293" r="5" fill="white"/>
<circle cx="152" cy="293" r="5" fill="white"/>
<circle cx="168" cy="293" r="5" fill="white"/>
<circle cx="184" cy="293" r="5" fill="white"/>
<circle cx="200" cy="293" r="5" fill="white"/>
<circle cx="216" cy="293" r="5" fill="white"/>
<circle cx="232" cy="293" r="5" fill="white"/>
<circle cx="248" cy="293" r="5" fill="white"/>
<circle cx="264" cy="293" r="5" fill="white"/>
<circle cx="280" cy="293" r="5" fill="white"/>
<circle cx="296" cy="293" r="5" fill="white"/>
<circle cx="312" cy="293" r="5" fill="white"/>
<circle cx="328" cy="293" r="5" fill="white"/>
<circle cx="344" cy="293" r="5" fill="white"/>
<circle cx="360" cy="293" r="5" fill="white"/>
<circle cx="376" cy="293" r="5" fill="white"/>
<circle cx="392" cy="293" r="5" fill="white"/>
<circle cx="8" cy="309" r="5" fill="white"/>
<circle cx="24" cy="309" r="5" fill="white"/>
<circle cx="40" cy="309" r="5" fill="white"/>
<circle cx="56" cy="309" r="5" fill="white"/>
<circle cx="72" cy="309" r="5" fill="white"/>
<circle cx="88" cy="309" r="5" fill="white"/>
<circle cx="104" cy="309" r="5" fill="white"/>
<circle cx="120" cy="309" r="5" fill="white"/>
<circle cx="136" cy="309" r="5" fill="white"/>
<circle cx="152" cy="309" r="5" fill="white"/>
<circle cx="168" cy="309" r="5" fill="white"/>
<circle cx="184" cy="309" r="5" fill="white"/>
<circle cx="200" cy="309" r="5" fill="white"/>
<circle cx="216" cy="309" r="5" fill="white"/>
<circle cx="232" cy="309" r="5" fill="white"/>
<circle cx="248" cy="309" r="5" fill="white"/>
<circle cx="264" cy="309" r="5" fill="white"/>
<circle cx="280" cy="309" r="5" fill="white"/>
<circle cx="296" cy="309" r="5" fill="white"/>
<circle cx="312" cy="309" r="5" fill="white"/>
<circle cx="328" cy="309" r="5" fill="white"/>
<circle cx="344" cy="309" r="5" fill="white"/>
<circle cx="360" cy="309" r="5" fill="white"/>
<circle cx="376" cy="309" r="5" fill="white"/>
<circle cx="392" cy="309" r="5" fill="white"/>
<circle cx="8" cy="325" r="5" fill="white"/>
<circle cx="24" cy="325" r="5" fill="white"/>
<circle cx="40" cy="325" r="5" fill="white"/>
<circle cx="56" cy="325" r="5" fill="white"/>
<circle cx="72" cy="325" r="5" fill="white"/>
<circle cx="88" cy="325" r="5" fill="white"/>
<circle cx="104" cy="325" r="5" fill="white"/>
<circle cx="120" cy="325" r="5" fill="white"/>
<circle cx="136" cy="325" r="5" fill="white"/>
<circle cx="152" cy="325" r="5" fill="white"/>
<circle cx="168" cy="325" r="5" fill="white"/>
<circle cx="184" cy="325" r="5" fill="white"/>
<circle cx="200" cy="325" r="5" fill="white"/>
<circle cx="216" cy="325" r="5" fill="white"/>
<circle cx="232" cy="325" r="5" fill="white"/>
<circle cx="248" cy="325" r="5" fill="white"/>
<circle cx="264" cy="325" r="5" fill="white"/>
<circle cx="280" cy="325" r="5" fill="white"/>
<circle cx="296" cy="325" r="5" fill="white"/>
<circle cx="312" cy="325" r="5" fill="white"/>
<circle cx="328" cy="325" r="5" fill="white"/>
<circle cx="344" cy="325" r="5" fill="white"/>
<circle cx="360" cy="325" r="5" fill="white"/>
<circle cx="376" cy="325" r="5" fill="white"/>
<circle cx="392" cy="325" r="5" fill="white"/>
<circle cx="8" cy="341" r="5" fill="white"/>
<circle cx="24" cy="341" r="5" fill="white"/>
<circle cx="40" cy="341" r="5" fill="white"/>
<circle cx="56" cy="341" r="5" fill="white"/>
<circle cx="72" cy="341" r="5" fill="white"/>
<circle cx="88" cy="341" r="5" fill="white"/>
<circle cx="104" cy="341" r="5" fill="white"/>
<circle cx="120" cy="341" r="5" fill="white"/>
<circle cx="136" cy="341" r="5" fill="white"/>
<circle cx="152" cy="341" r="5" fill="white"/>
<circle cx="168" cy="341" r="5" fill="white"/>
<circle cx="184" cy="341" r="5" fill="white"/>
<circle cx="200" cy="341" r="5" fill="white"/>
<circle cx="216" cy="341" r="5" fill="white"/>
<circle cx="232" cy="341" r="5" fill="white"/>
<circle cx="248" cy="341" r="5" fill="white"/>
<circle cx="264" cy="341" r="5" fill="white"/>
<circle cx="280" cy="341" r="5" fill="white"/>
<circle cx="296" cy="341" r="5" fill="white"/>
<circle cx="312" cy="341" r="5" fill="white"/>
<circle cx="328" cy="341" r="5" fill="white"/>
<circle cx="344" cy="341" r="5" fill="white"/>
<circle cx="360" cy="341" r="5" fill="white"/>
<circle cx="376" cy="341" r="5" fill="white"/>
<circle cx="392" cy="341" r="5" fill="white"/>
<circle cx="8" cy="357" r="5" fill="white"/>
<circle cx="24" cy="357" r="5" fill="white"/>
<circle cx="40" cy="357" r="5" fill="white"/>
<circle cx="56" cy="357" r="5" fill="white"/>
<circle cx="72" cy="357" r="5" fill="white"/>
<circle cx="88" cy="357" r="5" fill="white"/>
<circle cx="104" cy="357" r="5" fill="white"/>
<circle cx="120" cy="357" r="5" fill="white"/>
<circle cx="136" cy="357" r="5" fill="white"/>
<circle cx="152" cy="357" r="5" fill="white"/>
<circle cx="168" cy="357" r="5" fill="white"/>
<circle cx="184" cy="357" r="5" fill="white"/>
<circle cx="200" cy="357" r="5" fill="white"/>
<circle cx="216" cy="357" r="5" fill="white"/>
<circle cx="232" cy="357" r="5" fill="white"/>
<circle cx="248" cy="357" r="5" fill="white"/>
<circle cx="264" cy="357" r="5" fill="white"/>
<circle cx="280" cy="357" r="5" fill="white"/>
<circle cx="296" cy="357" r="5" fill="white"/>
<circle cx="312" cy="357" r="5" fill="white"/>
<circle cx="328" cy="357" r="5" fill="white"/>
<circle cx="344" cy="357" r="5" fill="white"/>
<circle cx="360" cy="357" r="5" fill="white"/>
<circle cx="376" cy="357" r="5" fill="white"/>
<circle cx="392" cy="357" r="5" fill="white"/>
<circle cx="8" cy="373" r="5" fill="white"/>
<circle cx="24" cy="373" r="5" fill="white"/>
<circle cx="40" cy="373" r="5" fill="white"/>
<circle cx="56" cy="373" r="5" fill="white"/>
<circle cx="72" cy="373" r="5" fill="white"/>
<circle cx="88" cy="373" r="5" fill="white"/>
<circle cx="104" cy="373" r="5" fill="white"/>
<circle cx="120" cy="373" r="5" fill="white"/>
<circle cx="136" cy="373" r="5" fill="white"/>
<circle cx="152" cy="373" r="5" fill="white"/>
<circle cx="168" cy="373" r="5" fill="white"/>
<circle cx="184" cy="373" r="5" fill="white"/>
<circle cx="200" cy="373" r="5" fill="white"/>
<circle cx="216" cy="373" r="5" fill="white"/>
<circle cx="232" cy="373" r="5" fill="white"/>
<circle cx="248" cy="373" r="5" fill="white"/>
<circle cx="264" cy="373" r="5" fill="white"/>
<circle cx="280" cy="373" r="5" fill="white"/>
<circle cx="296" cy="373" r="5" fill="white"/>
<circle cx="312" cy="373" r="5" fill="white"/>
<circle cx="328" cy="373" r="5" fill="white"/>
<circle cx="344" cy="373" r="5" fill="white"/>
<circle cx="360" cy="373" r="5" fill="white"/>
<circle cx="376" cy="373" r="5" fill="white"/>
<circle cx="392" cy="373" r="5" fill="white"/>
<circle cx="8" cy="389" r="5" fill="white"/>
<circle cx="24" cy="389" r="5" fill="white"/>
<circle cx="40" cy="389" r="5" fill="white"/>
<circle cx="56" cy="389" r="5" fill="white"/>
<circle cx="72" cy="389" r="5" fill="white"/>
<circle cx="88" cy="389" r="5" fill="white"/>
<circle cx="104" cy="389" r="5" fill="white"/>
<circle cx="120" cy="389" r="5" fill="white"/>
<circle cx="136" cy="389" r="5" fill="white"/>
<circle cx="152" cy="389" r="5" fill="white"/>
<circle cx="168" cy="389" r="5" fill="white"/>
<circle cx="184" cy="389" r="5" fill="white"/>
<circle cx="200" cy="389" r="5" fill="white"/>
<circle cx="216" cy="389" r="5" fill="white"/>
<circle cx="232" cy="389" r="5" fill="white"/>
<circle cx="248" cy="389" r="5" fill="white"/>
<circle cx="264" cy="389" r="5" fill="white"/>
<circle cx="280" cy="389" r="5" fill="white"/>
<circle cx="296" cy="389" r="5" fill="white"/>
<circle cx="312" cy="389" r="5" fill="white"/>
<circle cx="328" cy="389" r="5" fill="white"/>
<circle cx="344" cy="389" r="5" fill="white"/>
<circle cx="360" cy="389" r="5" fill="white"/>
<circle cx="376" cy="389" r="5" fill="white"/>
<circle cx="392" cy="389" r="5" fill="white"/>
</g>
</svg>
