<svg width="1440" height="324" viewBox="0 0 1440 324" fill="none" xmlns="http://www.w3.org/2000/svg">
<path fill-rule="evenodd" clip-rule="evenodd" d="M0 36L26.4 30C52.8 24 106.8 12 159.6 6C213.6 0 266.4 0 320.4 42C373.2 84 427.2 168 480 216C532.8 264 586.8 276 639.6 258C693.6 240 746.4 192 800.4 168C853.2 144 907.2 144 960 150C1012.8 156 1066.8 168 1119.6 186C1173.6 204 1226.4 228 1280.4 198C1333.2 168 1387.2 84 1413.6 42L1440 0V324H1413.6C1387.2 324 1333.2 324 1280.4 324C1226.4 324 1173.6 324 1119.6 324C1066.8 324 1012.8 324 960 324C907.2 324 853.2 324 800.4 324C746.4 324 693.6 324 639.6 324C586.8 324 532.8 324 480 324C427.2 324 373.2 324 320.4 324C266.4 324 213.6 324 159.6 324C106.8 324 52.8 324 26.4 324H0V36Z" fill="#FFFFFD"/>
</svg>
