<svg xmlns="http://www.w3.org/2000/svg" width="136.179" height="68.022" viewBox="0 0 136.179 68.022">
  <g id="logo_s" transform="translate(-42.65 -455.727)">
    <path id="Path_244" data-name="Path 244" d="M93.487,477.089c2.379,9.592-2.111,19.129-8.921,25.45a19.378,19.378,0,0,1-4.933,3.281,21.771,21.771,0,0,1-5.537,1.7c-16.159,4.339-33.084-9.4-31.319-27.139a21.472,21.472,0,0,1,1.013-5.336c2.2-6.78,7.574-12.228,13.645-15.894,6.077-3.134,12.933-4.663,19.826-2.2a29.63,29.63,0,0,1,8.7,5.366,22.494,22.494,0,0,1,3.4,3.813,16.246,16.246,0,0,1,2.213,4.466A23.9,23.9,0,0,1,93.487,477.089Z" transform="translate(0)" fill="#f1b8d2"/>
    <path id="Path_245" data-name="Path 245" d="M254.82,483.038c2.437,9.776-2.332,19.539-9.514,26.031a20.712,20.712,0,0,1-5.2,3.379,23.542,23.542,0,0,1-5.819,1.766c-16.978,4.528-34.649-9.4-32.689-27.509a21.546,21.546,0,0,1,1.1-5.453c2.347-6.934,8.02-12.527,14.412-16.307,6.394-3.236,13.6-4.838,20.812-2.365A30.761,30.761,0,0,1,247.016,468a22.745,22.745,0,0,1,3.544,3.871,16.166,16.166,0,0,1,2.294,4.545A23.659,23.659,0,0,1,254.82,483.038Z" transform="translate(-116.073 -4.129)" fill="#99b9e1"/>
    <path id="Path_246" data-name="Path 246" d="M380.846,494.333c1.8,9.608-3.249,18.781-10.429,24.647a19.543,19.543,0,0,1-5.124,2.968,22.06,22.06,0,0,1-5.632,1.369c-16.4,3.39-32.492-11.127-29.673-28.549a21.11,21.11,0,0,1,1.33-5.215c2.6-6.576,8.295-11.659,14.58-14.944,6.258-2.758,13.2-3.888,19.939-1.071a29.515,29.515,0,0,1,8.371,5.784,22.175,22.175,0,0,1,3.17,3.956,15.917,15.917,0,0,1,1.945,4.534A23.359,23.359,0,0,1,380.846,494.333Z" transform="translate(-209.785 -11.823)" fill="#fbf3a9"/>
    <g id="Group_72" data-name="Group 72" transform="translate(43.587 462.203)">
      <path id="Path_247" data-name="Path 247" d="M111.457,572.791a15.147,15.147,0,0,0,4.889-.682,22.92,22.92,0,0,0,4.547-1.655c1.534-.787,3.184-1.355,4.7-2.178a28.812,28.812,0,0,0,4.947-2.909.908.908,0,0,0,.411-1.038,23.363,23.363,0,0,1-.462-7.767,29.805,29.805,0,0,1,1.683-8.02c.674-1.8,1.572-3.492,2.372-5.231a5.525,5.525,0,0,1,1.035-1.478,20.116,20.116,0,0,1,3.211-2.933,14.354,14.354,0,0,1,6.664-2.592,4.566,4.566,0,0,1,4.067,1.517,3.438,3.438,0,0,1,.9,2.324,11.285,11.285,0,0,1-.849,4.5,58.286,58.286,0,0,1-3.459,6.812,37.5,37.5,0,0,1-2.293,3.4c-1.557,2.12-3.3,4.089-4.918,6.154a29.5,29.5,0,0,1-4.526,4.51.686.686,0,0,0-.221.922,8.856,8.856,0,0,0,1.573,2.586c.617.7,1.274,1.357,1.929,2.019a6.762,6.762,0,0,0,4.111,1.672,11.1,11.1,0,0,0,4.086-.208c.562-.129.606-.234.306-.71-.278-.44-.594-.857-.856-1.305a1.2,1.2,0,0,1,.122-1.579,1.415,1.415,0,0,1,1.751-.072,2.875,2.875,0,0,1,.811,1.021,10.53,10.53,0,0,0,.8,1.334.551.551,0,0,0,.837.161c.815-.449,1.618-.92,2.471-1.3a1.314,1.314,0,0,1,1.808.377,1.375,1.375,0,0,1-.639,1.881,7.711,7.711,0,0,1-1.613.809,2.179,2.179,0,0,0-.444.213c-.656.385-.714.6-.348,1.246.2.358.437.7.6,1.074a1.3,1.3,0,0,1-.453,1.734,1.279,1.279,0,0,1-1.759-.565c-.293-.528-.635-1.023-.943-1.54-.353-.594-.366-.6-1.054-.433a15.1,15.1,0,0,1-5.216.486,10.637,10.637,0,0,1-4.565-1.236,9.607,9.607,0,0,1-1.57-1.189,19.147,19.147,0,0,1-3.792-4.619c-.318-.575-.315-.568-.827-.223a27.759,27.759,0,0,1-3.45,1.907c-.595.288-1.137.66-1.73.943-1.831.872-3.709,1.638-5.559,2.467a22.765,22.765,0,0,1-6.868,1.87,19.365,19.365,0,0,1-8.838-.9,11.585,11.585,0,0,1-5.941-4.7c-.312-.484-.608-.977-.916-1.463s-.423-.538-.838-.215a24.282,24.282,0,0,1-4.964,2.72c-1.194.545-2.446.965-3.68,1.42-1.338.493-2.719.855-4.071,1.3a18.693,18.693,0,0,1-6.32.826,19.23,19.23,0,0,1-3.676-.383,10.349,10.349,0,0,1-2.61-.964,14.238,14.238,0,0,1-3.868-2.745,13.567,13.567,0,0,1-2.071-2.32c-.166-.285-.351-.281-.592-.062A37.9,37.9,0,0,1,58.7,572.1a31.841,31.841,0,0,1-4.078,1.735,37.418,37.418,0,0,1-6.886,1.895,1.291,1.291,0,0,1-1.552-.764,1.464,1.464,0,0,1,.713-1.607,3.529,3.529,0,0,1,1.255-.378,36.256,36.256,0,0,0,7.31-2.2,34.775,34.775,0,0,0,5.409-2.946,32.085,32.085,0,0,0,3.158-2.355.947.947,0,0,0,.375-1.2,14.994,14.994,0,0,1-.643-6.01,15.806,15.806,0,0,1,.7-4.284c.456-1.378.8-2.79,1.28-4.165a30.607,30.607,0,0,1,2.422-5.023c.771-1.358,1.66-2.641,2.521-3.943a30,30,0,0,1,3.034-3.764,14.033,14.033,0,0,1,1.491-1.289,17.808,17.808,0,0,1,2.5-1.723,5.613,5.613,0,0,1,5.718-.3,2.282,2.282,0,0,1,.48.313,6.959,6.959,0,0,1,2.564,4.793,13,13,0,0,1-.914,5.8,36.4,36.4,0,0,1-1.66,3.391,28.855,28.855,0,0,1-4.09,5.844c-2.075,2.255-3.915,4.715-6.135,6.845-1.7,1.633-3.457,3.193-5.3,4.662-.625.5-.624.5-.166,1.174a13.349,13.349,0,0,0,3.507,3.3,10.9,10.9,0,0,0,6.226,1.765,19.9,19.9,0,0,0,7.031-1.062c2.212-.738,4.405-1.528,6.55-2.423a18.392,18.392,0,0,0,4.737-2.768.81.81,0,0,0,.332-.85,31.562,31.562,0,0,1-.341-4.672,27.42,27.42,0,0,1,1.1-8.7,30.305,30.305,0,0,1,2.762-6.753,26.953,26.953,0,0,1,3.175-4.174,5.885,5.885,0,0,1,1.871-1.317,9.045,9.045,0,0,1,4.512-1.065c3.119.209,4.5,1.814,4.887,4.586a12.778,12.778,0,0,1-.917,5.96,22.557,22.557,0,0,1-1.959,3.693,72.018,72.018,0,0,1-4.511,6.565c-.36.5-.881.817-1.275,1.276-1.536,1.788-3.29,3.365-4.935,5.048a4.433,4.433,0,0,1-.5.421c-.761.578-.8.6-.334,1.374a13.553,13.553,0,0,0,2.882,3.655,9.194,9.194,0,0,0,3.585,1.764A16.984,16.984,0,0,0,111.457,572.791ZM66.311,559.444c0,.52-.04,1.045.01,1.56.062.625.2,1.242.307,1.862.059.334.246.407.523.223a10.013,10.013,0,0,0,.939-.659c.5-.423.964-.889,1.462-1.316a40.639,40.639,0,0,0,5.028-5.054c1.128-1.375,2.4-2.618,3.474-4.038a31.855,31.855,0,0,0,2.434-3.19c.7-1.21,1.415-2.41,2.048-3.652a11.327,11.327,0,0,0,1.4-5.763,4.778,4.778,0,0,0-.789-2.472,2.484,2.484,0,0,0-2.288-1.194,4.7,4.7,0,0,0-2.24.731,19.9,19.9,0,0,0-1.971,1.466,16.852,16.852,0,0,0-2.844,2.94,54.751,54.751,0,0,0-3.628,5.466,34.389,34.389,0,0,0-3.184,7.9A16.508,16.508,0,0,0,66.311,559.444Zm66.666-.749a19.767,19.767,0,0,0,.139,3.608c.028.208-.035.485.224.566.224.07.421-.091.582-.243.338-.319.679-.637,1-.975a44.1,44.1,0,0,0,3.31-3.859c.782-1.052,1.739-1.958,2.482-3.046.941-1.377,2.01-2.662,2.913-4.069.461-.718.752-1.519,1.193-2.245a33.906,33.906,0,0,0,2.232-4.387,9.136,9.136,0,0,0,.788-3.587,1.366,1.366,0,0,0-1.048-1.472,2.747,2.747,0,0,0-1.3-.093,11.577,11.577,0,0,0-5.462,2.289,11.882,11.882,0,0,0-3.123,3.215,30.488,30.488,0,0,0-3.458,9A19.406,19.406,0,0,0,132.978,558.7ZM99.1,563.01c.346-.031.481-.257.665-.411.65-.546,1.208-1.185,1.806-1.784a48.683,48.683,0,0,0,6.137-7.151c.566-.843.988-1.773,1.6-2.583a14.115,14.115,0,0,0,2.71-6.7,5.4,5.4,0,0,0-.108-2.2,2.382,2.382,0,0,0-2.111-1.8,2.78,2.78,0,0,0-1.144.041,11.316,11.316,0,0,0-2.545.912,3.562,3.562,0,0,0-1.106.841c-.678.821-1.382,1.626-2,2.489a25.932,25.932,0,0,0-3.1,6.939,20.045,20.045,0,0,0-.8,3.854,36.727,36.727,0,0,0-.171,6.644A1.813,1.813,0,0,0,99.1,563.01Z" transform="translate(-46.132 -518.779)" fill="#9b84bb"/>
      <path id="Path_248" data-name="Path 248" d="M107.867,505.12c.229,1.782-1.876,4.358-4.324,4.567a5.919,5.919,0,0,1-4.53-1.539,4.767,4.767,0,0,1-1.253-2.077,12.326,12.326,0,0,1-.69-3.032,6.344,6.344,0,0,1,.732-3.486,1.958,1.958,0,0,1,.59-.671,5.669,5.669,0,0,1,7.487.936A8.174,8.174,0,0,1,107.867,505.12Zm-3.512-2.359c0-.333-.239-.368-.45-.391a4.624,4.624,0,0,1-2.14-.747c-.3-.2-.459-.1-.489.233a7.111,7.111,0,0,1-.338,1.6c-.322.982-.317.979.667,1.436a4.754,4.754,0,0,1,.566.329c.343.22.674.458,1.021.671.24.147.423.1.447-.219a11.4,11.4,0,0,1,.657-2.7C104.321,502.9,104.34,502.817,104.355,502.761Z" transform="translate(-83.35 -493.004)" fill="#9b84bb"/>
      <path id="Path_249" data-name="Path 249" d="M172.5,485.32a6.193,6.193,0,0,1-1.538,4.384,4.716,4.716,0,0,1-4.551,1.513,3.559,3.559,0,0,1-2.2-1.62,9.4,9.4,0,0,1-1.425-5.064c-.048-1.671.917-2.674,2-3.646a4.307,4.307,0,0,1,3.906-.985,4.131,4.131,0,0,1,2.751,1.9A6.883,6.883,0,0,1,172.5,485.32Zm-2.633.322a14.734,14.734,0,0,1-1.974-2.289c-.155-.273-.347-.209-.5.038-.254.423-.515.841-.764,1.267-.206.351-.66.608-.643,1.016s.5.62.773.908c.364.381.6.9,1.135,1.212A6.763,6.763,0,0,1,169.871,485.641Z" transform="translate(-131.397 -479.795)" fill="#9b84bb"/>
      <path id="Path_250" data-name="Path 250" d="M232.486,506.758a.129.129,0,0,0-.094.057.489.489,0,0,0-.417.237,2.548,2.548,0,0,1-1.066.276c-.115-.2-.347-.219-.51-.343a.827.827,0,0,0-.474-.99.907.907,0,0,1,.63-1.077c.683-.318,1.33-.713,1.992-1.074a.612.612,0,0,0,.6-.433.875.875,0,0,0-.779.242c-.411.14-.817.3-1.236.416-.668.18-1.31.567-2.046.3a.931.931,0,0,1-.173-.686.357.357,0,0,0,.207-.314l.98-.718c-.055-.256-.246-.19-.385-.2a.6.6,0,0,1-.564-.51.693.693,0,0,1,.3-.714c.2-.171.528-.168.651-.454-.086-.241-.256-.136-.4-.1a1.731,1.731,0,0,1-.806.085.639.639,0,0,1-.464-1,1.054,1.054,0,0,1,.312-.372,16.5,16.5,0,0,1,2.423-1.657c.574-.25,1.1-.6,1.662-.888.789-.41,1.058-.352,1.639.359a.4.4,0,0,0,.422.168c.241-.046.481-.1.723-.143a.736.736,0,0,1,.839.369.7.7,0,0,1-.162.828,1.375,1.375,0,0,0-.405.59c.161.193.364.073.539.1a.707.707,0,0,1,.665.516.749.749,0,0,1-.3.794c-.158.136-.411.169-.46.425.084.215.272.128.417.145.674.077.838.261.8.956a.888.888,0,0,0,.073.618c.42.658.394.918-.234,1.353a18.247,18.247,0,0,1-2.069,1.31c-.486.248-.951.536-1.426.806A2.58,2.58,0,0,0,232.486,506.758Z" transform="translate(-179.301 -492.069)" fill="#9b84bb"/>
      <path id="Path_251" data-name="Path 251" d="M302.721,513.146a.332.332,0,0,0,.072.1.361.361,0,0,0,.288.371l.094.263-.23.673h0l-.844.087-.79-.25c-.144-.166-.266-.134-.349.053-.063.142-.105.293-.157.439h0a.65.65,0,0,0-.482.184h-.33a.973.973,0,0,0-.67-.317l-.59-.407a.353.353,0,0,0-.382-.276.324.324,0,0,0-.1-.068.391.391,0,0,0-.4-.252,53.373,53.373,0,0,0-.506-.306c-.639-.454-1.076-1.138-1.758-1.542-.116-.183-.248-.359-.346-.551a.584.584,0,0,1,.535-.91,1.261,1.261,0,0,1,.622.172c.713.349,1.433.683,2.158,1.007.116.052.274.234.43-.044a5.907,5.907,0,0,0-1.829-1.186,1.78,1.78,0,0,1-1.067-1.3,1.461,1.461,0,0,1,.531-.428,1.1,1.1,0,0,0,.789.143.8.8,0,0,0-.592-.57l-.63-.569a.335.335,0,0,0-.176-.335,1.128,1.128,0,0,1,.186-.684.354.354,0,0,0,.335-.175l.5.036,2.292,1.138a1.182,1.182,0,0,0,1.053.371,1.459,1.459,0,0,0-1.053-.671,3.243,3.243,0,0,0-1.24-.867l-.23-.162a.055.055,0,0,0-.061-.055l-.6-.581,0-.329a1.5,1.5,0,0,0,.98-1.4c0-.027.005-.055.008-.082h0l.689-.057a.5.5,0,0,0,.134.062c.083.347.362.433.659.494l2.072,1.4a.672.672,0,0,0,.572.4.281.281,0,0,0,.1.067.359.359,0,0,0,.384.272l.591.4a.944.944,0,0,0,.718.6,2.993,2.993,0,0,1,1.022,1.13l-.2.667h0c-.468.13-.5.187-.314.5l.011.66a.356.356,0,0,0-.188.324h0a3.936,3.936,0,0,1-1.67-.147,1.28,1.28,0,0,0,.963.864.3.3,0,0,0,.069.1.341.341,0,0,0,.171.338.975.975,0,0,1-.176.676.349.349,0,0,0-.338.171l-.66-.02c-.122-.122-.276-.236-.41-.069-.092.115.024.255.129.344A1.109,1.109,0,0,0,302.721,513.146Zm-4.215-3.766c-.168-.323-.339-.447-.726-.32A.843.843,0,0,0,298.506,509.38Zm-.9-.579c-.018.015-.052.034-.049.045a.455.455,0,0,0,.043.1c.017-.015.052-.034.049-.045A.454.454,0,0,0,297.61,508.8Zm1.636,3.021-.025.034.042.005Z" transform="translate(-228.142 -497.347)" fill="#9b84bb"/>
      <path id="Path_252" data-name="Path 252" d="M517.465,681.284c0-1.735.324-3.328.439-4.94a2.045,2.045,0,0,1,.2-.708,1.2,1.2,0,0,1,1.983-.361A3.47,3.47,0,0,1,521,677.08a13.992,13.992,0,0,0,.923,2.633c.164.36.3.952.7.921.456-.035.373-.651.478-1.027a5.094,5.094,0,0,0-.053-2.679,1.163,1.163,0,0,1,.424-1.386,1.233,1.233,0,0,1,1.961.571,5.284,5.284,0,0,1,.391,1.923,9.48,9.48,0,0,1-.461,3.157,3.609,3.609,0,0,1-.595,1.168,2.37,2.37,0,0,1-3.455.622,3.134,3.134,0,0,1-.68-.591c-.143-.168-.3-.37-.54-.3s-.144.323-.153.5a2.021,2.021,0,0,1-.212.7,1.014,1.014,0,0,1-1.043.65,1.089,1.089,0,0,1-1.041-.674,3.017,3.017,0,0,1-.236-1.364C517.424,681.663,517.453,681.417,517.465,681.284Z" transform="translate(-390.598 -622.401)" fill="#9b84bb"/>
      <path id="Path_253" data-name="Path 253" d="M489.826,677.782c-.052.613-.1,1.323-.179,2.03a2.343,2.343,0,0,1-.2.708,1.173,1.173,0,0,1-1.31.755,1.235,1.235,0,0,1-1.045-1.115,11.239,11.239,0,0,1,.034-1.31c.015-.6.015-.61-.536-.7-.648-.105-1.3-.2-1.951-.271-.634-.069-.668-.027-.8.624a7.764,7.764,0,0,1-.177.8,1.229,1.229,0,0,1-1.376.9,1.208,1.208,0,0,1-1.086-1.246,9.169,9.169,0,0,1,.678-3.2c.124-.3.258-.6.385-.9a5.087,5.087,0,0,1,3.131-3.051,3.032,3.032,0,0,1,3.454,1.416,6.8,6.8,0,0,1,.747,2.332A15.729,15.729,0,0,1,489.826,677.782Zm-3.336-2.2c.156,0,.392.065.414-.134a1.325,1.325,0,0,0-.29-.988.631.631,0,0,0-.75-.142,1.266,1.266,0,0,0-.516.389c-.146.16-.347.328-.3.552.063.29.355.169.552.2C485.9,675.515,486.193,675.546,486.49,675.585Z" transform="translate(-364.13 -620.051)" fill="#9b84bb"/>
      <path id="Path_254" data-name="Path 254" d="M375.976,507.4c.037-.252-.14-.365-.276-.484a36.465,36.465,0,0,1-2.72-2.726,8.079,8.079,0,0,0-1.476-1.3,1.727,1.727,0,0,1-.366-.326,1.247,1.247,0,0,1-.129-1.383,1.165,1.165,0,0,1,1.3-.478,2.83,2.83,0,0,1,1.226.794c1.884,1.747,3.577,3.687,5.479,5.417a1.821,1.821,0,0,1,.634,1.027,1.262,1.262,0,0,1-1.146,1.644c-.84.118-1.685.2-2.527.3a25.762,25.762,0,0,0-4.093.865c-.788.227-1.589.417-2.393.581a1.126,1.126,0,0,1-1.475-.809,1.154,1.154,0,0,1,.981-1.439c2.083-.583,4.212-.975,6.313-1.482C375.534,507.548,375.8,507.6,375.976,507.4Z" transform="translate(-281.372 -495.048)" fill="#9b84bb"/>
      <path id="Path_255" data-name="Path 255" d="M448.687,672.388a6.079,6.079,0,0,1,.148-1.871,1.626,1.626,0,0,1,.925-1.093c.947-.374,1.8.4,1.605,1.495a10.5,10.5,0,0,0-.093,2.457,2.325,2.325,0,0,0,1.073,1.852,1,1,0,0,0,1.47-.12,3.261,3.261,0,0,0,.859-1.919,11.423,11.423,0,0,0,.211-2.208,2.157,2.157,0,0,1,.037-.491,1.339,1.339,0,0,1,1.2-1.07,1.211,1.211,0,0,1,1.215.916,2.21,2.21,0,0,1,.127.726,10.8,10.8,0,0,1-1.077,4.93,3.806,3.806,0,0,1-6.672.209A5.613,5.613,0,0,1,448.687,672.388Z" transform="translate(-340.341 -618.328)" fill="#9b84bb"/>
      <path id="Path_256" data-name="Path 256" d="M447.529,533.26a3.183,3.183,0,0,1,3.885-3.308,3.231,3.231,0,0,1,2.356,4.611,3.564,3.564,0,0,1-3.859,1.869c-.027,0-.053-.013-.08-.019-1.754-.369-2.235-.942-2.3-2.742C447.525,533.534,447.529,533.4,447.529,533.26Z" transform="translate(-339.52 -516.413)" fill="#9b84bb"/>
      <path id="Path_257" data-name="Path 257" d="M303.451,504.021c0,.027-.005.055-.008.082a1.5,1.5,0,0,1-.98,1.4c-.135-.105-.139-.284-.013-.323.452-.142.544-.514.656-.891A.327.327,0,0,1,303.451,504.021Z" transform="translate(-233.412 -497.502)" fill="#9b84bb"/>
      <path id="Path_258" data-name="Path 258" d="M243.784,532.429a2.58,2.58,0,0,1,1.4-.72A1.785,1.785,0,0,1,243.784,532.429Z" transform="translate(-190.6 -517.74)" fill="#9b84bb"/>
      <path id="Path_259" data-name="Path 259" d="M326.48,515.884a.944.944,0,0,1-.718-.6" transform="translate(-250.519 -505.737)" fill="#9b84bb"/>
      <path id="Path_260" data-name="Path 260" d="M320.987,543.826l.844-.087C321.554,544.151,321.437,544.163,320.987,543.826Z" transform="translate(-247.029 -526.533)" fill="#9b84bb"/>
      <path id="Path_261" data-name="Path 261" d="M235.77,535.232c.164.124.4.146.51.343a.3.3,0,0,1-.47.034C235.673,535.506,235.61,535.376,235.77,535.232Z" transform="translate(-184.673 -520.315)" fill="#9b84bb"/>
      <path id="Path_262" data-name="Path 262" d="M307.109,503.809l-.689.057" transform="translate(-236.381 -497.347)" fill="#9b84bb"/>
      <path id="Path_263" data-name="Path 263" d="M331.469,522.37l.2-.667" transform="translate(-254.69 -510.427)" fill="#9b84bb"/>
      <path id="Path_264" data-name="Path 264" d="M316.17,543.334c.051-.147.093-.3.157-.439.083-.187.205-.219.349-.053C316.528,543.027,316.5,543.338,316.17,543.334Z" transform="translate(-243.508 -525.798)" fill="#9b84bb"/>
      <path id="Path_265" data-name="Path 265" d="M330.012,524.681c-.19-.315-.155-.372.313-.5" transform="translate(-253.547 -512.236)" fill="#9b84bb"/>
      <path id="Path_266" data-name="Path 266" d="M314.38,545.145a.65.65,0,0,1,.482-.184" transform="translate(-242.2 -527.426)" fill="#9b84bb"/>
      <path id="Path_267" data-name="Path 267" d="M322.522,513.06a.359.359,0,0,1-.384-.271" transform="translate(-247.87 -503.91)" fill="#9b84bb"/>
      <path id="Path_268" data-name="Path 268" d="M329.65,528.821a.356.356,0,0,1,.188-.324" transform="translate(-253.361 -515.392)" fill="#9b84bb"/>
      <path id="Path_269" data-name="Path 269" d="M305.192,540.741a.391.391,0,0,1,.4.252" transform="translate(-235.484 -524.341)" fill="#9b84bb"/>
      <path id="Path_270" data-name="Path 270" d="M323.847,539.253a.361.361,0,0,1-.288-.371" transform="translate(-248.909 -522.983)" fill="#9b84bb"/>
      <path id="Path_271" data-name="Path 271" d="M326.005,536.672a.349.349,0,0,1,.338-.171" transform="translate(-250.696 -521.242)" fill="#9b84bb"/>
      <path id="Path_272" data-name="Path 272" d="M307.051,541.928a.353.353,0,0,1,.382.276" transform="translate(-236.843 -525.209)" fill="#9b84bb"/>
      <path id="Path_273" data-name="Path 273" d="M230.5,521.811a.357.357,0,0,1-.207.313C230.094,521.844,230.282,521.819,230.5,521.811Z" transform="translate(-180.676 -510.505)" fill="#9b84bb"/>
      <path id="Path_274" data-name="Path 274" d="M241.884,534.832a.489.489,0,0,1,.417-.237C242.266,534.856,242.129,534.94,241.884,534.832Z" transform="translate(-189.211 -519.849)" fill="#9b84bb"/>
      <path id="Path_275" data-name="Path 275" d="M303.31,539.6a.356.356,0,0,1,.4.242" transform="translate(-234.108 -523.503)" fill="#9b84bb"/>
      <path id="Path_278" data-name="Path 278" d="M243.53,522.335l-.176-.191a.874.874,0,0,1,.779-.242A.612.612,0,0,1,243.53,522.335Z" transform="translate(-190.285 -510.56)" fill="#9b84bb"/>
      <path id="Path_279" data-name="Path 279" d="M310.659,517.247v-.3a1.459,1.459,0,0,1,1.053.671A1.182,1.182,0,0,1,310.659,517.247Z" transform="translate(-239.48 -506.95)" fill="#9b84bb"/>
      <path id="Path_280" data-name="Path 280" d="M305.66,523.511a.843.843,0,0,1-.726-.32C305.321,523.064,305.492,523.187,305.66,523.511Z" transform="translate(-235.295 -511.478)" fill="#9b84bb"/>
      <path id="Path_281" data-name="Path 281" d="M304.167,522.361a.453.453,0,0,1,.043.1c0,.011-.032.03-.049.045a.456.456,0,0,1-.043-.1C304.115,522.395,304.149,522.376,304.167,522.361Z" transform="translate(-234.699 -510.907)" fill="#9b84bb"/>
      <path id="Path_282" data-name="Path 282" d="M310.313,533.589l.016.039-.042-.005Z" transform="translate(-239.208 -519.114)" fill="#9b84bb"/>
    </g>
  </g>
</svg>
